<?xml version="1.0" encoding="utf-8"?>
<!-- Generator: Adobe Illustrator 15.0.2, SVG Export Plug-In . SVG Version: 6.00 Build 0)  -->
<!DOCTYPE svg PUBLIC "-//W3C//DTD SVG 1.1//EN" "http://www.w3.org/Graphics/SVG/1.1/DTD/svg11.dtd">
<svg version="1.1" id="Layer_1" xmlns="http://www.w3.org/2000/svg" xmlns:xlink="http://www.w3.org/1999/xlink" x="0px" y="0px"
	 width="1024px" height="1024px" viewBox="0 0 1024 1024" enable-background="new 0 0 1024 1024" xml:space="preserve">
<rect x="105.188" y="128.5" fill="#FFFFFF" width="788.562" height="788.531"/>
<g>
	<path fill="#0E6C9A" d="M768,756.656H658.25V580.062c0-44.375-15.875-74.688-55.625-74.688c-30.25,0-48.375,20.5-56.312,40.188
		c-2.922,7.062-3.625,16.875-3.625,26.75v184.344H432.953c0,0,1.422-299.156,0-330.094h109.734v46.75
		c14.625-22.5,40.688-54.5,98.938-54.5C713.812,418.812,768,466,768,567.406V756.656z M317.344,381.5h-0.703
		c-36.828,0-60.641-25.438-60.641-57.062c0-32.438,24.578-57.125,62.047-57.125c37.562,0,60.703,24.688,61.375,57.125
		C379.422,356.062,355.609,381.5,317.344,381.5 M372.25,756.656H262.469V426.562H372.25V756.656z M864,0H160
		C71.609,0,0,71.688,0,160v704c0,88.375,71.609,160,160,160h704c88.375,0,160-71.625,160-160V160C1024,71.688,952.375,0,864,0"/>
	<path fill="#0E6C9A" d="M542.688,474.375v-1.062c-0.188,0.375-0.484,0.75-0.734,1.062H542.688z"/>
</g>
</svg>
